# xmcd
#
# Track frame offsets: 
#        150
#        12900
#        30965
#        47610
#        60132
#        73182
#        90018
#        104534
#        116297
#        129194
#        141584
#        154174
#        171662
#
# Disc length: 2505 seconds
#
# Revision: 0
# Processed by: cddbd v1.5.2PL0 Copyright (c) Steve Scherf et al.
# Submitted via: ExactAudioCopy v0.99pb5
#
DISCID=a009c70d
DTITLE=Dickie and The Tornadoes - Port Arthur Swamp
DYEAR=2003
DGENRE=Blues
TTITLE0=I'm A Fool To Care
TTITLE1=Fannie Mae
TTITLE2=Don't Take It So Hard
TTITLE3=I Got Loaded
TTITLE4=Write Me Letter
TTITLE5=634-5789
TTITLE6=Just Because
TTITLE7=Sea Cruise
TTITLE8=Big Boys Cry
TTITLE9=Before I Grow Too Old
TTITLE10=I'm Not Ready
TTITLE11=The Jealous Kind
TTITLE12=Walkin' To New Orleans
EXTD=
EXTT0=
EXTT1=
EXTT2=
EXTT3=
EXTT4=
EXTT5=
EXTT6=
EXTT7=
EXTT8=
EXTT9=
EXTT10=
EXTT11=
EXTT12=
PLAYORDER=
